<svg width="289" height="108" viewBox="0 0 289 108" fill="none" xmlns="http://www.w3.org/2000/svg">
    <path fill-rule="evenodd" clip-rule="evenodd" d="M198.5 91.6984C211.04 91.6984 221.205 81.5329 221.205 68.9932C221.205 56.4535 211.04 46.2881 198.5 46.2881C185.96 46.2881 175.795 56.4535 175.795 68.9932C175.795 81.5329 185.96 91.6984 198.5 91.6984ZM198.5 107.493C219.763 107.493 237 90.2562 237 68.9932C237 47.7303 219.763 30.4932 198.5 30.4932C177.237 30.4932 160 47.7303 160 68.9932C160 90.2562 177.237 107.493 198.5 107.493Z" fill="#171717"/>
    <path d="M279.237 107.986C282.321 107.986 285.359 107.753 288.35 107.285V91.4431C286.574 91.7235 284.938 91.8637 283.443 91.8637C278.956 91.8637 275.685 90.8356 273.629 88.7794C271.573 86.7231 270.544 83.779 270.544 79.9469V47.2809H288.069V30.8777H270.544V13.4932H252.179V19.3815C252.179 26.5264 252.179 30.8777 252.179 30.8777H239V47.2809H252.179V80.9283C252.179 89.4336 254.515 96.0696 259.188 100.836C263.955 105.603 270.638 107.986 279.237 107.986Z" fill="#171717"/>
    <path d="M85 105.493H102.666V62.4626C102.666 57.6965 104.015 53.8745 106.712 50.9968C109.499 48.1191 113.095 46.6803 117.5 46.6803C121.905 46.6803 125.456 48.1191 128.154 50.9968C130.941 53.7846 132.334 57.6065 132.334 62.4626V105.493H150V58.281C150 52.7954 148.831 47.9842 146.494 43.8475C144.156 39.6209 140.875 36.3386 136.649 34.0004C132.514 31.6623 127.749 30.4932 122.355 30.4932C117.77 30.4932 113.634 31.3925 109.948 33.1911C106.352 34.9896 103.565 37.6425 101.587 41.1497V32.1119H85V105.493Z" fill="#171717"/>
    <path fill-rule="evenodd" clip-rule="evenodd" d="M26 58.4448L26 0.493225H10L10 57.7654C8.61308 58.4371 7.29599 59.3109 6.09136 60.3885C-1.42383 67.1116 -1.42383 78.8754 6.09137 85.5985C7.29599 86.6761 8.61309 87.5499 10 88.2216L10 105.493H26L26 87.5422C27.3538 86.7383 28.6167 85.7306 29.7431 84.5214L30.2805 83.9445L43.6438 94.914C52.7647 102.401 64.1997 106.493 76 106.493L76 90.4932C67.902 90.4932 60.0547 87.6849 53.7954 82.5469L41.271 72.266L75.7046 36.0018L64.1018 24.9847L29.6033 61.3173C28.5126 60.1737 27.2981 59.2156 26 58.4448Z" fill="#171717"/>
</svg>